<?xml version="1.0" standalone="no"?>
<!DOCTYPE svg PUBLIC "-//W3C//DTD SVG 20010904//EN"
 "http://www.w3.org/TR/2001/REC-SVG-20010904/DTD/svg10.dtd">
<svg version="1.0" xmlns="http://www.w3.org/2000/svg"
 width="300.000000pt" height="300.000000pt" viewBox="0 0 300.000000 300.000000"
 preserveAspectRatio="xMidYMid meet">
<metadata>
Created by potrace 1.10, written by Peter Selinger 2001-2011
</metadata>
<g transform="translate(0.000000,300.000000) scale(0.100000,-0.100000)"
fill="#000000" stroke="none">
<path d="M1463 2963 c26 -2 67 -2 90 0 23 2 2 3 -48 3 -49 0 -68 -1 -42 -3z"/>
<path d="M1860 2724 c-41 -7 -107 -18 -147 -23 -97 -14 -579 -15 -623 -2 -19
6 -51 11 -71 11 -106 0 -254 -145 -309 -303 -21 -59 -57 -251 -64 -345 -7 -76
-14 -91 -86 -168 -44 -47 -59 -71 -64 -103 -13 -86 61 -301 104 -301 15 0 20
-7 20 -25 0 -36 22 -74 67 -116 59 -57 96 -72 207 -84 27 -3 51 -7 53 -9 2 -2
-10 -9 -28 -16 -24 -10 -33 -10 -38 -1 -11 18 -28 -6 -36 -50 -5 -25 -3 -39 6
-44 8 -6 1 -13 -22 -24 -39 -18 -46 -38 -25 -66 14 -19 17 -19 43 -5 18 10 29
25 31 43 3 20 9 27 26 27 33 0 66 36 66 71 l0 31 28 -27 c72 -68 237 -144 345
-160 21 -3 35 -10 32 -16 -4 -5 -10 -7 -14 -5 -14 9 -51 -38 -51 -65 0 -6 -20
-29 -44 -50 -47 -42 -58 -71 -71 -194 -4 -33 -11 -62 -15 -65 -8 -5 20 -104
33 -116 3 -4 -3 -18 -14 -33 -11 -15 -20 -44 -21 -70 -1 -38 3 -48 29 -70 25
-21 32 -36 36 -80 3 -29 7 -54 9 -56 2 -2 85 -6 185 -10 l183 -8 9 24 c4 13
12 52 16 87 4 34 11 65 16 68 19 11 59 84 59 107 0 34 -23 62 -45 53 -16 -6
-17 -2 -11 40 3 26 6 53 6 60 0 8 9 14 20 14 26 0 26 19 0 116 -23 85 -36 111
-62 117 -10 3 -18 12 -18 21 0 9 -6 16 -14 16 -17 0 -46 43 -46 69 0 16 9 21
58 26 132 15 256 61 355 131 54 39 62 41 46 16 -26 -41 41 -106 74 -73 19 19
27 12 16 -13 -14 -30 3 -66 31 -66 46 0 89 82 55 106 -14 11 -20 10 -32 -2
-22 -21 -23 -18 -16 31 5 41 4 45 -15 45 -17 0 -20 -5 -17 -29 4 -34 -16 -47
-45 -28 -24 15 -26 37 -3 37 15 0 14 2 -3 15 -18 13 -16 14 27 15 116 0 250
69 309 158 24 37 31 56 28 87 -3 37 52 199 97 288 17 32 10 54 -32 99 -23 24
-24 30 -14 58 6 18 15 70 21 117 9 69 8 101 -5 172 -45 247 -142 428 -265 494
-101 54 -233 72 -360 51z m155 -22 c20 -14 75 -130 91 -193 18 -71 43 -300 36
-335 -4 -20 -8 -22 -36 -16 -17 3 -40 6 -52 7 -20 0 -20 4 -16 135 5 152 -7
218 -58 329 -17 35 -30 67 -30 72 0 11 51 12 65 1z m-55 -109 c34 -106 35
-111 33 -263 -1 -85 -5 -154 -10 -153 -13 3 -283 16 -330 17 -45 0 -51 4 -32
23 16 16 -5 238 -34 351 l-23 92 30 1 c17 0 45 2 62 4 31 4 31 4 38 -48 3 -28
9 -134 13 -234 6 -170 11 -201 29 -172 11 19 4 255 -10 359 -8 52 -11 98 -7
102 4 5 26 9 49 10 24 1 44 4 46 7 2 3 28 7 58 9 l53 3 35 -108z m212 -36 c74
-159 91 -225 85 -336 -3 -47 -1 -94 2 -104 14 -40 31 11 37 110 9 145 -27 267
-112 384 -19 26 -34 50 -34 53 0 12 55 -22 102 -63 75 -66 89 -97 104 -229 16
-132 21 -306 10 -340 -7 -22 -9 -21 -57 22 -27 24 -67 53 -89 64 l-40 19 -5
114 c-6 165 -28 270 -72 359 -21 41 -39 78 -41 82 -2 4 9 3 25 -2 23 -9 37
-31 85 -133z m-1103 107 c2 -2 -3 -14 -11 -26 -31 -48 -41 -126 -34 -267 7
-132 8 -179 3 -204 -1 -7 5 -12 13 -12 13 0 15 29 15 200 0 168 3 208 18 253
l19 52 44 0 c45 0 57 -13 32 -39 -15 -14 -16 -168 -2 -326 7 -80 12 -100 25
-103 24 -4 27 22 12 133 -18 135 -20 252 -4 298 l13 37 169 0 169 0 0 -37 c0
-21 6 -78 14 -128 8 -49 17 -136 21 -192 l6 -102 -65 6 -65 6 6 -109 c3 -60 7
-120 8 -134 1 -14 3 -67 4 -117 1 -72 4 -93 15 -93 8 0 17 7 20 16 8 22 -4
231 -19 327 -6 43 -9 79 -6 81 3 2 31 0 61 -6 l55 -9 5 -92 c3 -51 5 -146 5
-211 l0 -119 -95 -3 c-52 -1 -103 -5 -114 -9 -16 -7 -17 -6 -7 14 9 16 9 37 1
81 -22 130 -29 178 -35 245 -8 94 -14 117 -26 109 -13 -8 -6 -154 16 -304 21
-152 22 -146 -27 -154 -23 -4 -49 -12 -57 -19 -10 -9 -15 -9 -18 -1 -3 8 -15
9 -41 3 -20 -5 -40 -9 -44 -9 -4 0 -13 19 -19 43 -7 23 -23 76 -37 117 -15 48
-26 108 -29 166 l-6 91 69 16 c38 8 71 14 73 11 2 -2 -2 -23 -8 -47 -11 -38
-10 -106 3 -172 24 -121 30 -146 37 -151 5 -3 9 -14 9 -25 0 -22 18 -26 26 -4
3 8 -6 62 -21 120 -28 111 -37 267 -16 288 20 20 11 28 -26 22 -93 -16 -222
-48 -267 -66 -27 -10 -51 -17 -54 -14 -3 3 0 35 7 73 7 37 17 135 21 217 9
145 19 196 55 265 15 28 19 31 48 24 18 -3 34 -8 36 -10z m-99 -1 c0 -3 -6
-14 -13 -22 -27 -32 -47 -102 -52 -188 -10 -170 -16 -229 -31 -291 -7 -34 -13
-67 -11 -73 1 -6 -16 -22 -39 -35 l-41 -23 -13 84 c-18 116 -9 233 26 321 33
83 96 187 131 214 26 20 43 26 43 13z m-170 -161 c-22 -43 -46 -107 -55 -143
-19 -80 -19 -206 -1 -284 8 -33 14 -60 13 -61 -1 0 -19 -10 -41 -23 -21 -12
-41 -19 -44 -16 -5 4 12 190 25 275 11 72 43 180 68 232 23 45 61 98 71 98 2
0 -15 -35 -36 -78z m1620 -212 c12 -47 24 -107 27 -135 2 -27 6 -55 8 -60 4
-16 -12 -183 -20 -195 -4 -7 -18 10 -34 42 -24 47 -25 54 -12 65 29 21 26 228
-6 363 -4 17 -2 22 5 15 6 -5 20 -48 32 -95z m-680 -137 c3 -3 6 -94 7 -203 2
-221 0 -227 -59 -216 l-33 6 -1 157 c-1 109 -6 176 -17 215 l-15 58 56 -6 c32
-4 59 -9 62 -11z m102 -41 c3 -80 4 -87 16 -84 14 2 15 -8 3 -40 -5 -13 -12
-52 -15 -87 -4 -35 -9 -67 -11 -71 -2 -4 0 -23 6 -43 15 -55 59 -93 139 -118
39 -12 72 -25 74 -28 2 -3 -4 -16 -13 -28 -16 -19 -23 -20 -57 -12 -21 5 -76
12 -121 14 -44 3 -103 11 -130 18 -27 7 -72 10 -103 6 -30 -3 -56 -2 -58 3 -2
4 -9 8 -16 8 -15 0 -39 47 -28 54 13 8 114 7 177 -2 33 -4 84 -19 112 -31 50
-22 83 -23 83 -2 0 5 -13 12 -30 16 -16 4 -30 11 -30 16 0 4 -15 12 -32 17
-24 6 -32 14 -31 28 18 148 17 294 -2 381 -7 30 -6 31 29 31 36 0 36 0 38 -46z
m106 29 c9 -5 12 -26 10 -67 l-3 -59 -19 38 c-19 38 -31 46 -39 25 -7 -19 -14
-7 -22 35 -7 37 -7 37 26 37 19 0 40 -4 47 -9z m123 -11 c16 0 19 -8 19 -44 0
-70 -13 -93 -49 -91 -17 1 -31 -2 -31 -7 0 -4 -7 -8 -15 -8 -18 0 -20 16 -4
26 7 4 9 28 4 72 l-7 65 32 -7 c18 -3 41 -6 51 -6z m112 -34 c36 -14 46 -23
42 -35 -4 -9 -9 -38 -12 -66 -5 -47 -4 -49 12 -34 9 9 19 35 22 58 l6 42 39
-38 c44 -42 91 -110 84 -121 -2 -4 -12 -52 -21 -107 -16 -94 -53 -196 -76
-210 -5 -4 -18 3 -29 15 -10 12 -24 20 -32 19 -7 -1 -29 -1 -48 0 l-35 1 50
24 c84 40 135 143 131 264 -3 94 -14 104 -59 58 -42 -42 -48 -43 -72 -16 -10
12 -25 18 -32 16 -7 -3 -13 1 -13 9 0 16 -15 21 -23 8 -2 -5 -2 -2 0 5 1 8 3
41 3 74 0 33 3 58 8 56 4 -1 29 -12 55 -22z m-1127 -79 c1 -74 8 -115 36 -210
35 -118 35 -119 14 -126 -59 -22 -75 -22 -87 1 -7 13 -15 25 -19 28 -14 11
-58 138 -65 188 -4 30 -4 82 0 117 l6 63 52 15 c29 9 54 16 57 16 3 1 5 -41 6
-92z m-145 12 c-17 -49 -13 -160 7 -226 10 -32 35 -87 55 -121 l37 -63 -26
-24 c-28 -26 -18 -40 19 -26 13 5 44 9 69 9 36 -1 52 4 74 25 37 35 47 34 39
-4 -6 -26 -4 -30 12 -27 26 5 30 56 6 73 -25 18 -18 22 55 30 50 5 62 4 62 -8
0 -15 -47 -42 -67 -38 -13 2 -28 -37 -19 -47 16 -16 48 -11 53 8 3 13 13 19
27 17 18 -2 21 3 19 36 -2 30 1 37 16 37 10 0 21 6 24 14 3 7 17 16 30 18 19
4 28 -1 37 -18 18 -33 7 -51 -29 -49 -17 1 -34 4 -37 8 -12 11 -23 -3 -18 -21
3 -9 8 -23 10 -30 2 -8 9 -10 16 -5 25 15 78 9 84 -9 8 -26 34 -22 34 5 0 13
-4 27 -9 32 -5 6 -12 27 -15 49 -10 55 16 43 27 -13 6 -31 15 -45 33 -53 20
-10 27 -9 35 3 7 11 9 11 9 0 0 -9 8 -11 24 -7 16 4 26 1 30 -9 8 -22 36 -18
36 5 0 24 8 25 31 4 13 -11 39 -17 89 -18 51 -1 69 -4 66 -13 -8 -20 14 -26
33 -9 21 19 43 20 59 4 7 -7 30 -13 53 -14 26 -1 46 -9 55 -21 22 -29 36 2 19
44 -10 25 -11 33 -2 33 23 0 120 -29 130 -39 11 -11 -22 -121 -61 -201 -40
-81 -150 -187 -247 -237 -78 -40 -194 -76 -283 -87 -65 -8 -96 -27 -100 -59
-4 -30 -5 -31 -30 -18 -9 5 -30 13 -46 17 -35 11 -47 34 -17 34 25 0 28 20 4
21 -41 1 -136 26 -188 48 -81 35 -106 48 -153 78 -30 19 -63 43 -75 54 -12 11
-27 17 -33 15 -7 -3 -15 9 -19 30 -3 19 -14 38 -23 42 -9 3 -25 15 -34 27 -28
32 -105 201 -97 209 2 2 42 20 89 39 46 19 86 41 89 48 2 8 -2 10 -15 4 -43
-17 -54 -17 -54 -1 0 9 -22 60 -49 114 -50 98 -78 201 -67 245 4 17 22 31 63
49 32 14 60 24 62 22 2 -2 -2 -17 -8 -35z m1036 -70 c11 -14 26 -16 72 -12 54
5 62 3 112 -31 30 -20 59 -36 65 -36 6 0 21 11 34 25 13 14 26 25 29 25 16 0
2 -129 -19 -173 -37 -79 -77 -92 -191 -62 -120 31 -172 87 -170 183 1 55 6 95
18 136 5 17 7 16 21 -10 8 -16 21 -36 29 -45z m-1183 2 c-9 -57 10 -130 66
-248 28 -58 50 -109 50 -114 0 -5 -8 -9 -18 -9 -10 0 -23 -5 -30 -12 -14 -14
-10 -19 -57 67 -67 121 -76 145 -82 216 -8 94 -28 75 -28 -26 1 -67 4 -81 45
-161 25 -48 46 -91 48 -95 2 -4 -11 -4 -30 1 -18 6 -40 8 -48 5 -12 -4 -24 11
-45 56 -37 77 -41 185 -9 240 15 26 123 116 142 119 1 0 -1 -17 -4 -39z m1640
-115 c-3 -7 2 -19 11 -26 8 -7 15 -19 15 -27 0 -10 6 -12 20 -8 18 6 20 2 20
-44 0 -27 -4 -53 -10 -56 -6 -4 -10 10 -10 34 0 70 -18 45 -25 -36 -5 -47 -16
-92 -29 -116 -20 -38 -23 -39 -73 -41 -29 -1 -53 1 -53 4 0 4 13 16 30 28 49
37 90 156 90 263 0 29 4 48 10 44 5 -3 7 -12 4 -19z m-1819 -8 c-26 -85 -12
-180 36 -250 26 -36 24 -58 -3 -58 -19 0 -29 14 -58 87 -45 113 -49 194 -10
223 33 26 44 25 35 -2z m135 -291 c24 -19 83 -108 76 -114 -3 -3 -12 0 -20 6
-12 10 -20 9 -40 -4 -14 -10 -24 -21 -21 -25 9 -15 75 -32 98 -26 18 4 26 -2
44 -34 13 -21 19 -41 14 -45 -5 -3 -12 -1 -16 5 -3 5 -19 10 -34 10 -16 0 -34
6 -40 14 -6 8 -25 19 -41 26 -34 14 -80 77 -84 116 -4 31 21 84 39 84 5 0 17
-6 25 -13z m1614 -57 c88 -33 31 -160 -94 -210 -30 -12 -63 -26 -73 -31 -10
-5 -22 -7 -27 -4 -5 3 -18 0 -29 -7 -35 -22 -34 -1 3 47 20 25 36 51 36 57 0
6 10 8 24 4 32 -8 76 9 76 30 0 16 -19 15 -66 -3 -15 -5 -14 0 7 37 48 85 81
104 143 80z m-1414 -304 c0 -18 -16 -29 -30 -21 -13 8 -1 35 16 35 8 0 14 -6
14 -14z m448 -245 c3 -16 8 -20 22 -16 15 5 19 -2 25 -50 4 -34 11 -55 19 -55
17 0 42 29 55 63 6 16 18 27 29 27 16 0 18 -9 18 -81 l-1 -81 -50 -4 c-27 -2
-64 -6 -82 -9 -28 -5 -33 -3 -37 17 -2 13 -11 55 -19 95 -15 75 -12 126 7 120
6 -2 12 -14 14 -26z m96 -17 c12 -5 13 -10 4 -30 -12 -26 -28 -16 -28 19 0 19
2 20 24 11z m-195 -186 c0 -31 6 -60 11 -63 20 -12 10 -23 -25 -27 -24 -3 -35
0 -35 9 0 23 22 168 27 183 9 22 20 -33 22 -102z m375 48 c20 -69 20 -68 -6
-64 -21 3 -23 9 -26 66 -4 76 10 75 32 -2z m-320 -7 c-11 -18 44 -89 69 -89
18 0 19 -2 7 -10 -24 -16 -77 -12 -84 6 -10 27 -7 116 4 109 6 -4 8 -11 4 -16z
m266 -71 c0 -5 -11 -8 -25 -8 -29 0 -33 15 -8 29 17 9 32 -1 33 -21z m37 -70
c-3 -18 -9 -52 -12 -74 -4 -25 -16 -51 -31 -65 -31 -29 -30 -57 4 -105 25 -36
27 -43 19 -89 -5 -27 -11 -56 -13 -63 -3 -10 -24 -11 -91 -6 -49 4 -118 7
-155 7 l-66 0 -4 36 c-4 29 1 41 23 64 33 32 45 85 32 130 -8 27 -14 32 -42
33 -30 0 -34 4 -57 60 -13 32 -24 59 -24 59 0 0 35 1 78 2 42 2 124 11 182 22
58 11 118 20 134 20 26 1 28 -1 23 -31z m51 -159 c1 -13 -6 -35 -16 -48 -16
-20 -22 -22 -40 -12 -32 17 -29 59 3 67 14 3 25 11 25 16 0 21 25 0 28 -23z
m-427 -19 c10 0 19 5 19 10 0 22 19 8 25 -19 11 -51 -31 -91 -63 -59 -7 7 -12
30 -11 53 0 22 3 34 6 28 2 -7 13 -13 24 -13z"/>
<path d="M1807 2673 c-3 -5 8 -47 24 -94 31 -92 47 -186 50 -286 2 -68 10 -90
29 -78 20 13 6 214 -20 300 -21 66 -65 165 -75 165 -2 0 -6 -3 -8 -7z"/>
<path d="M1300 2619 c-21 -51 -7 -379 17 -386 20 -7 27 45 16 116 -6 36 -10
119 -9 183 1 65 -2 118 -5 118 -4 0 -12 -14 -19 -31z"/>
<path d="M1444 2433 c3 -114 9 -209 11 -212 3 -2 11 1 18 8 14 14 15 87 4 251
-9 136 -14 160 -29 160 -8 0 -9 -57 -4 -207z"/>
<path d="M1686 1512 c-4 -6 1 -15 9 -19 12 -7 3 -12 -35 -22 -63 -16 -73 -31
-21 -31 31 0 39 -3 35 -15 -4 -9 3 -16 22 -21 15 -4 38 -13 51 -19 l24 -13
-26 -6 c-24 -6 -36 -26 -15 -26 6 0 10 -7 10 -15 0 -22 39 -39 93 -41 52 -1
51 -1 61 37 5 21 2 28 -14 32 -24 6 -38 -12 -19 -24 9 -6 -1 -7 -26 -3 -50 8
-55 11 -55 35 0 11 -11 31 -24 43 -32 33 -39 55 -20 63 23 9 143 -27 172 -52
l25 -22 -26 -7 c-39 -9 -33 -20 21 -38 46 -14 50 -14 72 4 13 11 20 22 14 26
-5 4 -14 16 -20 27 -6 11 -21 21 -32 23 -12 2 -27 11 -34 21 -12 16 -88 45
-148 55 -14 3 -39 8 -56 11 -19 4 -34 3 -38 -3z"/>
<path d="M1148 1499 c-8 -4 -49 -17 -92 -29 -97 -26 -119 -39 -110 -65 3 -11
6 -28 7 -37 2 -21 55 -16 95 9 l26 18 -27 3 c-45 5 -31 20 42 42 84 25 95 25
86 3 -4 -10 -8 -38 -9 -63 -1 -41 -3 -45 -28 -48 -18 -2 -31 4 -42 19 -15 22
-16 22 -51 6 -19 -9 -35 -22 -35 -27 0 -6 5 -8 10 -5 6 4 27 8 46 10 34 3 35
3 18 -16 -15 -17 -16 -21 -3 -33 12 -12 23 -11 74 6 71 23 98 44 72 54 -9 3
-17 17 -17 29 0 13 -5 25 -12 27 -20 7 2 27 37 34 36 6 48 24 18 24 -14 0 -15
2 -4 9 7 5 12 14 9 22 -5 14 -87 21 -110 8z"/>
<path d="M1460 1243 c0 -6 -9 -15 -20 -18 -36 -11 -20 -73 22 -88 11 -4 28 2
43 16 21 19 24 28 19 59 -5 28 -11 36 -25 35 -11 -1 -19 -6 -19 -12 0 -5 -5
-3 -10 5 -6 9 -10 10 -10 3z"/>
<path d="M1973 1856 c-29 -36 -30 -66 -3 -66 21 0 34 32 28 71 -3 24 -3 24
-25 -5z"/>
<path d="M2151 1804 c-26 -33 -27 -54 -3 -54 18 0 42 37 42 65 0 23 -16 18
-39 -11z"/>
<path d="M730 1055 c-7 -8 -19 -15 -27 -15 -16 0 -52 -38 -53 -56 0 -6 -7 -17
-16 -25 -28 -23 -64 -109 -45 -109 5 0 24 25 41 54 17 30 40 58 50 61 11 4 20
13 20 21 0 8 5 14 10 14 6 0 10 -4 10 -10 0 -16 26 -11 43 8 24 26 22 72 -2
72 -10 0 -24 -7 -31 -15z"/>
<path d="M2225 1057 c-13 -15 -35 -65 -35 -77 0 -18 39 -10 60 12 24 26 26 63
4 72 -19 7 -17 8 -29 -7z"/>
<path d="M527 1033 c-4 -3 -7 -14 -7 -24 0 -23 36 -33 80 -22 47 12 51 33 6
33 -19 0 -38 5 -41 10 -7 11 -28 13 -38 3z"/>
<path d="M2273 995 c-24 -23 -31 -55 -12 -55 27 0 49 22 49 50 0 35 -7 36 -37
5z"/>
<path d="M2412 1013 c-45 -4 -88 -35 -76 -54 15 -24 124 14 124 43 0 10 -1 17
-2 16 -2 -1 -22 -3 -46 -5z"/>
<path d="M2302 948 c-17 -17 -16 -68 2 -68 19 0 29 31 18 59 -6 17 -10 19 -20
9z"/>
</g>
</svg>
